<?xml version="1.0" encoding="UTF-8"?>
<svg id="Layer_1" xmlns="http://www.w3.org/2000/svg" version="1.1" viewBox="0 0 916.08 192.96">
  <!-- Generator: Adobe Illustrator 29.3.0, SVG Export Plug-In . SVG Version: 2.1.0 Build 146)  -->
  <defs>
    <style>
      .st0 {
        fill: #02672d;
      }

      .st1 {
        fill: #5c544a;
      }

      .st2 {
        fill: #3897d2;
      }

      .st3 {
        fill: #56ad33;
      }

      .st4 {
        fill: #f7f5f5;
      }

      .st5 {
        fill: #2767b0;
      }
    </style>
  </defs>
  <g>
    <path class="st5" d="M101.25,192.96c-2.91.14-6.45.13-9.36,0-3.76-.17-9.43-.72-13.11-1.64-.24-.06-.76.09-.56-.39.09-.22,3.01-2.82,3.48-3.23,20.9-18.24,51.17-19.96,76.36-28.95,6.18-2.2,11.77-5.27,17.81-7.74.17.18-1.48,2.38-1.72,2.71-16.68,22.97-44.46,37.88-72.9,39.24Z"/>
    <path class="st2" d="M192.18,85.1c1.74,13.97.44,28.59-4.31,41.82-7.67,6.9-18.11,11.34-27.6,15.33-4.09,1.72-8.39,3.5-12.58,4.93-13.25,4.52-27.3,6.4-40.49,11.08-16.92,6-30.94,17.31-44.72,28.41-12-4.27-23.13-11.37-32.24-20.2,22.55-4.46,44.06-14.5,61.54-29.37,8.97-7.63,16.99-16.35,26.3-23.58,21.41-16.62,47.99-23.03,74.11-28.42Z"/>
    <path class="st0" d="M101.25.48c4.02.13,11.17.52,14.88,1.81.41.14.58.02.48.59-4.25,2.99-8.35,6.17-12.74,8.97-8.99,5.74-18.88,10.64-29.07,13.87-14.68,4.65-30.54,6.32-44.73,12.36-5.06,2.15-9.77,5.09-14.95,6.99-.16-.17,1.7-2.82,1.96-3.19C33.97,17.35,62.23,1.55,92.14.24c.25.4.91.24,1.32.24,2.6.03,5.21-.09,7.8,0Z"/>
    <path class="st3" d="M101.25.48c-2.59-.08-5.21.03-7.8,0-.41,0-1.07.15-1.32-.24,2.52-.11,5.26-.04,7.8,0,.41,0,1.07-.15,1.32.24Z"/>
    <g>
      <path class="st3" d="M0,92.29c.35-7.54,1.75-15.93,4.01-23.2.26-.85.89-3.16,1.29-3.74s2.87-2.29,3.64-2.84c22.27-15.97,44.57-19.94,69.64-28.71,18.36-6.42,34.26-15.93,49.3-28.16,13.66,4.3,25.99,12.39,36.23,22.28-17.76,16.09-38.66,27.61-61.48,34.94-31.23,10.03-54.09,15.71-79.61,37.93-6.12,5.33-10.12,10.36-15.47,16.19-.51.55-3.77,3.94-4.09,4.07-.41.18-.32-.15-.38-.33-1.79-4.76-2.86-14.67-3.09-19.81-.12-2.69-.12-5.94,0-8.63Z"/>
      <path class="st1" d="M169.55,34.06c.36-.06,1.67,1.63,2,2.03,8.31,9.99,14.54,22.59,17.9,35.12-15.61,6.23-32.88,7.98-48.36,14.5-25.22,10.61-42.13,33.43-63.86,49.11-13.24,9.56-29.01,17.42-44.48,22.68-1.62.55-7.53,2.74-8.83,2.34-.87-.26-5.98-7.26-6.84-8.51-2.81-4.06-5.58-8.71-7.69-13.17-.42-.89-2.16-4.52-2.12-5.2.14-2.64,5.57-8.64,7.49-10.71,8.88-9.59,22.03-21.63,33.02-28.62,19.27-12.25,42.98-14.88,64.23-22.37,19.74-6.95,38-17.79,52.97-32.42.71-.69,4.1-4.7,4.59-4.78Z"/>
    </g>
  </g>
  <g>
    <g>
      <path class="st4" d="M719.7,98.18c0,20.81-16.89,37.69-37.72,37.69s-37.72-16.87-37.72-37.69,16.89-37.69,37.72-37.69,37.72,16.87,37.72,37.69ZM678.97,75.34c-27.3,2.62-25.07,49.66,6.62,45.44,15.13-2.01,21.66-17.7,16.95-31.25-3.67-10.55-12.62-15.24-23.57-14.19Z"/>
      <path class="st4" d="M731.81,62.56h31.08c15.14,1.04,25.63,11.52,23.35,27.17-1.33,9.11-7.69,14.89-16.29,17.29l16.78,26.15c.11.2-.28.57-.34.57h-16.08l-16.56-24.93h-7.08v24.57s-.33.36-.36.36h-14.52V62.56ZM746.68,96.6h16.68c.28,0,2.78-1.31,3.22-1.58,6.05-3.71,6.08-12.15.61-16.39-.83-.64-3.33-1.92-4.31-1.92h-16.2v19.9Z"/>
    </g>
    <path class="st4" d="M589.29,62.8v28.76h28.07v-28.76h14.88v70.59s-.33.36-.36.36h-14.16s-.36-.33-.36-.36v-28.88h-28.07v29.24h-14.52s-.36-.33-.36-.36V63.16s.33-.36.36-.36h14.52Z"/>
    <path class="st4" d="M385.34,62.8v45.42c0,1.38,2.62,6.48,3.6,7.67,5.48,6.6,19.67,6.32,24.43-.99.83-1.28,2.92-6,2.92-7.39v-44.7h14.76c.2,0,.42.58.37.83-.58,14.15.72,28.84,0,42.93-.77,14.96-8.23,25.77-23.47,28.32-19.11,3.2-36.49-5.78-37.73-26.41v-45.67h15.13Z"/>
    <polygon class="st4" points="494.75 62.56 494.75 76.46 460.44 76.46 460.44 92.05 491.39 92.05 491.39 103.79 460.44 103.79 460.44 119.85 494.99 119.85 494.99 133.75 445.56 133.75 445.56 62.56 494.75 62.56"/>
    <g>
      <path class="st4" d="M813.87,76.46v15.58h31.19v11.75h-31.19v16.06h34.79v13.54s-.33.36-.36.36h-48.95s-.36-.33-.36-.36V62.56h49.07s.36.33.36.36v13.18s-.33.36-.36.36h-34.19Z"/>
      <path class="st4" d="M908.4,81.74l-5.11-3.16c-5.7-3.2-23.33-6.96-26.36.84-2.33,6,3.65,8.58,8.25,10.05,7.55,2.42,16.46,3.02,22.85,8.09,11.93,9.48,9.79,28.31-3.9,34.92-12.28,5.93-29.23,2.26-40.25-4.96-1.89-1.24-3.55-2.77-5.36-4.11l6.32-10.98c7.65,5.76,21.31,11.8,30.76,7.94,5.74-2.35,6.44-8.14,1.11-11.5-7.07-4.46-17.33-4.1-25.1-8.49-14.48-8.18-13.99-29.05.82-36.48,12.64-6.34,31.06-1.83,41.7,6.73l-5.74,11.1Z"/>
    </g>
    <path class="st4" d="M511.07,112.42l4.87,3.16c6.45,3.79,15.73,7.02,23.25,5.65,7.34-1.34,11.09-8.25,3.62-12.59-6.84-3.97-16.16-3.93-23.44-7.51-17.62-8.65-15.12-33.38,3.75-38.87,12.51-3.64,27.29.62,37.51,8.21l-6.01,11.25c-3.71-2.81-8.01-4.84-12.56-5.9-5.21-1.21-16.75-2.54-18.88,4-1.99,6.11,4.79,8.48,9.29,9.89,5.44,1.7,11.4,2.48,16.66,4.69,17.98,7.55,17.32,32.52-1,39.12-14.09,5.07-32.66-.29-43.27-10.43l6.2-10.67Z"/>
    <g>
      <path class="st4" d="M247.62,62.56l32.99.24c12.16,1.26,22.19,9.01,19.24,22.33-.91,4.11-2.65,6.83-6.09,9.26-1.56,1.1-3.42,1.75-4.87,2.92,14.93,2.25,19.46,21.55,8.16,31.05-11.04,9.29-35.01,3.91-48.6,5.4-.25.05-.83-.17-.83-.37V62.56ZM262.25,92.76h15.24c.38,0,3-1.05,3.49-1.31,5.66-3.02,5.82-11.47-.24-14.16-.43-.19-2.98-1.07-3.25-1.07h-15.24v16.54ZM279.89,103.07h-17.64v17.02h18.36c.58,0,2.77-1.04,3.4-1.4,8.02-4.52,4.3-14.73-4.12-15.62Z"/>
      <path class="st4" d="M329.91,119.85h30.71v13.54s-.33.36-.36.36h-45.23V62.56h14.52s.36.33.36.36v56.93Z"/>
    </g>
  </g>
</svg>