<svg xmlns="http://www.w3.org/2000/svg" xmlns:xlink="http://www.w3.org/1999/xlink" width="383.283" height="55.914" viewBox="0 0 383.283 55.914">
  <defs>
    <clipPath id="clip-path">
      <rect id="Rectangle_6" data-name="Rectangle 6" width="383.283" height="55.914" fill="none"/>
    </clipPath>
  </defs>
  <g id="Group_3" data-name="Group 3" transform="translate(0 0.001)">
    <path id="Path_40" data-name="Path 40" d="M0,83.184l26.842,6.711V76.473Z" transform="translate(0 -49.182)" fill="#ffd100"/>
    <path id="Path_41" data-name="Path 41" d="M177.27,0,150.428,6.71l26.843,6.71Z" transform="translate(-96.743)" fill="#ffd100"/>
    <path id="Path_42" data-name="Path 42" d="M75.214,71.091,128.9,84.512V57.67Z" transform="translate(-48.372 -37.089)" fill="#ffd100"/>
    <path id="Path_43" data-name="Path 43" d="M245.7,28.46,299.38,41.881V15.039Z" transform="translate(-158.012 -9.672)" fill="#ffd100"/>
    <path id="Path_44" data-name="Path 44" d="M245.7,125.778l26.842,6.711V119.067Z" transform="translate(-158.012 -76.575)" fill="#ffd100"/>
    <path id="Path_45" data-name="Path 45" d="M621.011,22.265l6.692,1.673V20.592Z" transform="translate(-399.385 -13.244)" fill="#ffd100"/>
    <g id="Group_2" data-name="Group 2" transform="translate(0 0)">
      <g id="Group_1" data-name="Group 1" clip-path="url(#clip-path)">
        <path id="Path_46" data-name="Path 46" d="M471.659,32.81a3.01,3.01,0,0,0,3.1,2.206c1.563,0,2.7-.707,2.7-1.906,0-.878-.642-1.52-1.97-1.991l-1.927-.664c-3.148-1.049-3.683-2.955-3.683-4.218,0-2.634,2.227-4.261,4.967-4.261a4.885,4.885,0,0,1,4.968,3.426l-2.313.963a2.583,2.583,0,0,0-2.655-1.948c-1.22,0-2.227.6-2.227,1.777,0,.514.15,1.285,1.777,1.863l1.927.706c2.912.921,3.833,2.762,3.854,4.24,0,2.891-2.462,4.432-5.353,4.432-2.933,0-5.246-1.649-5.653-4.068Z" transform="translate(-301.736 -14.133)" fill="#003e48"/>
        <path id="Path_47" data-name="Path 47" d="M515.6,45.11h-2.634v-1.82a3.619,3.619,0,0,1-3.49,2.056c-2.7,0-4.025-1.949-4.025-5.075v-6h2.633v5.974c0,1.756.685,2.784,2.1,2.784,1.22,0,2.784-1.006,2.784-4.068V34.275H515.6Z" transform="translate(-325.066 -22.043)" fill="#003e48"/>
        <path id="Path_48" data-name="Path 48" d="M540.936,41.238a2.265,2.265,0,0,0,2.312,1.563c.771,0,1.627-.278,1.627-1.135,0-.556-.514-.878-1.178-1.156l-1.584-.6c-2.163-.813-2.719-2.034-2.719-3.019,0-2.013,1.713-3.276,3.961-3.276a3.727,3.727,0,0,1,3.79,2.419l-2.12.771a1.631,1.631,0,0,0-1.648-1.113,1.27,1.27,0,0,0-1.413,1.135c0,.6.535.9,1.135,1.113l1.606.578c2.312.771,2.762,2.162,2.762,3.1,0,2.141-1.991,3.3-4.239,3.3a4.246,4.246,0,0,1-4.368-2.805Z" transform="translate(-346.551 -21.619)" fill="#003e48"/>
        <path id="Path_49" data-name="Path 49" d="M569.7,29.065h3.233v2.013H569.7v5.674c0,.664.278,1.178,1.049,1.178a1.034,1.034,0,0,0,1.07-1.113,2.645,2.645,0,0,0-.15-.9h2.163a3.418,3.418,0,0,1,.235,1.221c0,1.585-1.092,3-3.426,3-1.8,0-3.576-.771-3.576-3.747v-5.31h-1.691V29.065h1.82l.471-2.891H569.7Z" transform="translate(-363.607 -16.833)" fill="#003e48"/>
        <path id="Path_50" data-name="Path 50" d="M603.744,33.85V44.685H601.11V43.058a4.3,4.3,0,0,1-3.7,1.863c-3.212,0-5.31-2.527-5.31-5.7,0-3.062,2.013-5.61,5.332-5.61a4.384,4.384,0,0,1,3.683,1.841V33.85Zm-5.8,8.865a3.126,3.126,0,0,0,3.233-3.362,3.259,3.259,0,0,0-3.3-3.533,3.141,3.141,0,0,0-3.126,3.426,3.2,3.2,0,0,0,3.191,3.469" transform="translate(-380.789 -21.618)" fill="#003e48"/>
        <rect id="Rectangle_2" data-name="Rectangle 2" width="2.634" height="10.835" transform="translate(225.668 12.232)" fill="#003e48"/>
        <path id="Path_51" data-name="Path 51" d="M647.23,33.85h2.633v1.82a3.65,3.65,0,0,1,3.512-2.056c2.7,0,4,1.948,4,5.074v6h-2.633V38.711c0-1.884-.792-2.869-2.1-2.869-1.542,0-2.784,1.156-2.784,3.426v5.417H647.23Z" transform="translate(-416.247 -21.618)" fill="#003e48"/>
        <path id="Path_52" data-name="Path 52" d="M692.645,33.85V44.685h-2.634V43.058a4.3,4.3,0,0,1-3.7,1.863c-3.212,0-5.31-2.527-5.31-5.7,0-3.062,2.013-5.61,5.332-5.61a4.384,4.384,0,0,1,3.683,1.841V33.85Zm-5.8,8.865a3.126,3.126,0,0,0,3.233-3.362,3.259,3.259,0,0,0-3.3-3.533,3.141,3.141,0,0,0-3.126,3.426,3.2,3.2,0,0,0,3.191,3.469" transform="translate(-437.963 -21.618)" fill="#003e48"/>
        <path id="Path_53" data-name="Path 53" d="M727.457,36.972a4.3,4.3,0,0,1-3.7-1.863v1.627h-2.633V21.255h2.633v6.252a4.385,4.385,0,0,1,3.683-1.841c3.319,0,5.331,2.548,5.331,5.61,0,3.169-2.1,5.7-5.31,5.7m-.471-9.1A3.243,3.243,0,0,0,723.71,31.4a3.109,3.109,0,0,0,3.212,3.362,3.2,3.2,0,0,0,3.19-3.469,3.141,3.141,0,0,0-3.126-3.426" transform="translate(-463.766 -13.67)" fill="#003e48"/>
        <rect id="Rectangle_3" data-name="Rectangle 3" width="2.634" height="15.481" transform="translate(271.069 7.585)" fill="#003e48"/>
        <path id="Path_54" data-name="Path 54" d="M783.606,42.843a6.25,6.25,0,0,1-4.9,2.077c-3.9,0-6.231-2.527-6.231-5.61a5.709,5.709,0,0,1,5.931-5.7c2.933,0,5.7,1.841,5.7,6.017h-8.993c0,1.713,1.392,3.062,3.725,3.062a4.63,4.63,0,0,0,3.276-1.328Zm-8.372-4.989H781.4a2.875,2.875,0,0,0-3-2.141,3.141,3.141,0,0,0-3.169,2.141" transform="translate(-496.793 -21.618)" fill="#003e48"/>
        <path id="Path_55" data-name="Path 55" d="M835.255,29.916a3.719,3.719,0,0,1,3.383,3.619c0,2.462-2.077,4.09-5.16,4.09h-6.167V22.636h5.5c2.934,0,5.117,1.5,5.117,3.982a3.433,3.433,0,0,1-2.676,3.3m-3.34-.813c2.484,0,3.212-1.2,3.212-2.334,0-1.285-1.092-1.927-2.312-1.927h-2.762V29.1Zm-1.863,1.991V35.44h3.426a2.09,2.09,0,0,0,2.355-1.97c0-1.2-.77-2.377-3.511-2.377Z" transform="translate(-532.061 -14.558)" fill="#003e48"/>
        <rect id="Rectangle_4" data-name="Rectangle 4" width="2.634" height="15.481" transform="translate(308.841 7.585)" fill="#003e48"/>
        <path id="Path_56" data-name="Path 56" d="M890.111,45.11h-2.634v-1.82a3.62,3.62,0,0,1-3.49,2.056c-2.7,0-4.025-1.949-4.025-5.075v-6H882.6v5.974c0,1.756.685,2.784,2.1,2.784,1.221,0,2.784-1.006,2.784-4.068V34.275h2.634Z" transform="translate(-565.922 -22.043)" fill="#003e48"/>
        <path id="Path_57" data-name="Path 57" d="M925.115,42.843a6.25,6.25,0,0,1-4.9,2.077c-3.9,0-6.231-2.527-6.231-5.61a5.709,5.709,0,0,1,5.931-5.7c2.934,0,5.7,1.841,5.7,6.017h-8.993c0,1.713,1.392,3.062,3.725,3.062a4.63,4.63,0,0,0,3.276-1.328Zm-8.372-4.989h6.166a2.875,2.875,0,0,0-3-2.141,3.141,3.141,0,0,0-3.169,2.141" transform="translate(-587.8 -21.618)" fill="#003e48"/>
        <path id="Path_58" data-name="Path 58" d="M472.775,109.624V94.636h9.742v2.206h-7v4.346h6.1v2.184h-6.1v4.068h7v2.184Z" transform="translate(-304.051 -60.862)" fill="#003e48"/>
        <path id="Path_59" data-name="Path 59" d="M509.513,105.615a6.869,6.869,0,0,1,4.175,1.456l-1.221,1.884a4.543,4.543,0,0,0-2.826-.985,3.308,3.308,0,1,0,0,6.595,4.689,4.689,0,0,0,2.826-.985l1.221,1.863a6.782,6.782,0,0,1-4.175,1.477c-3.769,0-6.1-2.441-6.1-5.588,0-3.212,2.27-5.717,6.1-5.717" transform="translate(-323.753 -67.923)" fill="#003e48"/>
        <path id="Path_60" data-name="Path 60" d="M539.973,105.615a5.657,5.657,0,1,1-5.867,5.653,5.839,5.839,0,0,1,5.867-5.653m0,9.057a3.41,3.41,0,1,0-3.212-3.4,3.271,3.271,0,0,0,3.212,3.4" transform="translate(-343.494 -67.923)" fill="#003e48"/>
        <path id="Path_61" data-name="Path 61" d="M572.542,105.851h2.633v1.82a3.65,3.65,0,0,1,3.512-2.056c2.7,0,4,1.949,4,5.074v6h-2.633v-5.974c0-1.884-.792-2.869-2.1-2.869-1.542,0-2.784,1.156-2.784,3.426v5.417h-2.633Z" transform="translate(-368.214 -67.923)" fill="#003e48"/>
        <path id="Path_62" data-name="Path 62" d="M611.871,105.615A5.657,5.657,0,1,1,606,111.268a5.839,5.839,0,0,1,5.867-5.653m0,9.057a3.41,3.41,0,1,0-3.212-3.4,3.271,3.271,0,0,0,3.212,3.4" transform="translate(-389.734 -67.923)" fill="#003e48"/>
        <path id="Path_63" data-name="Path 63" d="M651.527,110.712c0-1.884-.749-2.869-2.013-2.869-1.2,0-2.376.921-2.441,3.3v5.546H644.44V105.852h2.633v1.82a3.376,3.376,0,0,1,3.191-2.055,3.513,3.513,0,0,1,3.383,2.034,3.639,3.639,0,0,1,3.554-2.034c2.805,0,4.026,1.949,4.026,5.074v6h-2.634v-5.974c0-1.884-.75-2.869-2.013-2.869-1.2,0-2.377.921-2.441,3.3v5.546h-2.612Z" transform="translate(-414.453 -67.924)" fill="#003e48"/>
        <path id="Path_64" data-name="Path 64" d="M702.324,106.275h2.955l-6.723,15.738h-2.591l2.205-5.546-4.6-10.192h2.976l2.955,7.43Z" transform="translate(-446.047 -68.348)" fill="#003e48"/>
        <path id="Path_65" data-name="Path 65" d="M747.806,109.624V94.636H754.1a4.549,4.549,0,0,1,4.69,4.818,4.471,4.471,0,0,1-4.69,4.689h-3.555v5.481Zm5.867-7.644a2.584,2.584,0,0,0,0-5.139h-3.126v5.139Z" transform="translate(-480.929 -60.862)" fill="#003e48"/>
        <path id="Path_66" data-name="Path 66" d="M792.549,105.851v10.835h-2.634v-1.627a4.3,4.3,0,0,1-3.7,1.863c-3.212,0-5.31-2.527-5.31-5.7,0-3.062,2.013-5.61,5.332-5.61a4.384,4.384,0,0,1,3.683,1.841v-1.606Zm-5.8,8.865a3.126,3.126,0,0,0,3.233-3.362,3.26,3.26,0,0,0-3.3-3.533,3.141,3.141,0,0,0-3.126,3.426,3.2,3.2,0,0,0,3.19,3.469" transform="translate(-502.213 -67.923)" fill="#003e48"/>
        <path id="Path_67" data-name="Path 67" d="M823.644,108.249a2.942,2.942,0,0,1,3.854-2.484v2.591a3.885,3.885,0,0,0-1.242-.214c-.964,0-2.569.535-2.569,3.533v5.01h-2.633V105.851h2.591Z" transform="translate(-528.036 -67.923)" fill="#003e48"/>
        <path id="Path_68" data-name="Path 68" d="M845.742,101.066h3.233v2.013h-3.233v5.674c0,.663.278,1.178,1.049,1.178a1.034,1.034,0,0,0,1.07-1.113,2.643,2.643,0,0,0-.149-.9h2.163a3.424,3.424,0,0,1,.235,1.221c0,1.585-1.092,3-3.426,3-1.8,0-3.576-.771-3.576-3.747v-5.31h-1.691v-2.013h1.82l.471-2.891h2.034Z" transform="translate(-541.133 -63.138)" fill="#003e48"/>
        <path id="Path_69" data-name="Path 69" d="M870.2,105.851h2.633v1.82a3.65,3.65,0,0,1,3.512-2.056c2.7,0,4,1.949,4,5.074v6h-2.633v-5.974c0-1.884-.792-2.869-2.1-2.869-1.542,0-2.784,1.156-2.784,3.426v5.417H870.2Z" transform="translate(-559.642 -67.923)" fill="#003e48"/>
        <path id="Path_70" data-name="Path 70" d="M914.92,114.843a6.25,6.25,0,0,1-4.9,2.077c-3.9,0-6.231-2.527-6.231-5.61a5.709,5.709,0,0,1,5.931-5.7c2.934,0,5.7,1.841,5.7,6.017H906.42c0,1.713,1.392,3.062,3.725,3.062a4.63,4.63,0,0,0,3.276-1.328Zm-8.372-4.989h6.167a2.875,2.875,0,0,0-3-2.141,3.141,3.141,0,0,0-3.169,2.141" transform="translate(-581.243 -67.923)" fill="#003e48"/>
        <path id="Path_71" data-name="Path 71" d="M944.231,108.249a2.943,2.943,0,0,1,3.854-2.484v2.591a3.885,3.885,0,0,0-1.242-.214c-.964,0-2.57.535-2.57,3.533v5.01H941.64V105.851h2.591Z" transform="translate(-605.588 -67.923)" fill="#003e48"/>
        <path id="Path_72" data-name="Path 72" d="M963.437,113.239a2.265,2.265,0,0,0,2.312,1.563c.771,0,1.627-.278,1.627-1.135,0-.556-.514-.878-1.178-1.156l-1.584-.6c-2.163-.813-2.719-2.034-2.719-3.019,0-2.012,1.713-3.276,3.961-3.276a3.727,3.727,0,0,1,3.79,2.419l-2.12.771a1.631,1.631,0,0,0-1.648-1.113,1.27,1.27,0,0,0-1.413,1.135c0,.6.535.9,1.135,1.113l1.606.578c2.312.771,2.762,2.162,2.762,3.1,0,2.141-1.991,3.3-4.239,3.3a4.246,4.246,0,0,1-4.368-2.805Z" transform="translate(-618.27 -67.924)" fill="#003e48"/>
        <path id="Path_73" data-name="Path 73" d="M990.917,93.256h2.633v6.466a3.62,3.62,0,0,1,3.49-2.056c2.7,0,4.025,1.949,4.025,5.074v6h-2.633v-5.974c0-1.885-.814-2.869-2.12-2.869-1.284,0-2.762.964-2.762,3.426v5.417h-2.633Z" transform="translate(-637.279 -59.975)" fill="#003e48"/>
        <rect id="Rectangle_5" data-name="Rectangle 5" width="2.634" height="10.834" transform="translate(366.32 37.927)" fill="#003e48"/>
        <path id="Path_74" data-name="Path 74" d="M1041.346,121.588V105.851h2.633v1.627a4.3,4.3,0,0,1,3.7-1.863c3.212,0,5.31,2.526,5.31,5.7,0,3.062-2.013,5.61-5.332,5.61a4.384,4.384,0,0,1-3.683-1.842v6.509Zm5.8-13.768a3.125,3.125,0,0,0-3.233,3.362,3.26,3.26,0,0,0,3.3,3.533,3.14,3.14,0,0,0,3.125-3.426,3.2,3.2,0,0,0-3.19-3.469" transform="translate(-669.711 -67.923)" fill="#003e48"/>
        <path id="Path_75" data-name="Path 75" d="M1015.09,94.271l6.692,1.673V92.6Z" transform="translate(-652.825 -59.552)" fill="#ffd100"/>
      </g>
    </g>
  </g>
</svg>
